<mxfile host="app.diagrams.net" agent="Mozilla/5.0 (X11; Linux x86_64) AppleWebKit/537.36 (KHTML, like Gecko) Chrome/125.0.0.0 Safari/537.36" version="24.7.6">
  <diagram name="Page-1" id="aaaa8250-4180-3840-79b5-4cada1eebb92">
    <mxGraphModel dx="2390" dy="1260" grid="1" gridSize="10" guides="1" tooltips="1" connect="1" arrows="1" fold="1" page="1" pageScale="1" pageWidth="850" pageHeight="1100" background="none" math="0" shadow="0">
      <root>
        <mxCell id="0" />
        <mxCell id="1" parent="0" />
        <mxCell id="1a8abee3a6cfdf20-5" value="" style="edgeStyle=isometricEdgeStyle;endArrow=none;html=1;labelBackgroundColor=none;strokeColor=#000000;strokeWidth=5;fontFamily=Verdana;fontSize=12" parent="1" edge="1">
          <mxGeometry width="50" height="100" relative="1" as="geometry">
            <mxPoint x="430" y="1333" as="sourcePoint" />
            <mxPoint x="968" y="1025" as="targetPoint" />
            <Array as="points" />
          </mxGeometry>
        </mxCell>
        <mxCell id="1a8abee3a6cfdf20-9" value="" style="verticalLabelPosition=bottom;html=1;verticalAlign=top;strokeWidth=1;dashed=0;shape=mxgraph.aws3d.internetGateway;fillColor=#ECECEC;strokeColor=#5E5E5E;aspect=fixed;rounded=1;shadow=0;comic=0;fontSize=12;flipH=1;flipV=0;" parent="1" vertex="1">
          <mxGeometry x="782" y="378" width="116.7" height="102.8" as="geometry" />
        </mxCell>
        <mxCell id="1a8abee3a6cfdf20-11" value="" style="verticalLabelPosition=bottom;html=1;verticalAlign=top;strokeWidth=1;dashed=0;shape=mxgraph.aws3d.internetGateway;fillColor=#ECECEC;strokeColor=#5E5E5E;aspect=fixed;rounded=1;shadow=0;comic=0;fontSize=12;flipH=1;flipV=0;" parent="1" vertex="1">
          <mxGeometry x="2302" y="1151" width="116.7" height="102.8" as="geometry" />
        </mxCell>
        <mxCell id="1a8abee3a6cfdf20-27" value="" style="verticalLabelPosition=bottom;html=1;verticalAlign=top;strokeWidth=1;dashed=0;shape=mxgraph.aws3d.arrowhead;aspect=fixed;rounded=1;shadow=0;comic=0;fillColor=none;fontFamily=Verdana;fontSize=12;fontColor=#000000;flipV=1;" parent="1" vertex="1">
          <mxGeometry x="401" y="1328" width="39" height="23" as="geometry" />
        </mxCell>
        <mxCell id="d5ac148becb70bc-6" value="" style="verticalLabelPosition=bottom;html=1;verticalAlign=top;strokeWidth=1;dashed=0;shape=mxgraph.aws3d.arrowSW;fillColor=#000000;aspect=fixed;rounded=1;shadow=0;comic=0;fontFamily=Verdana;fontSize=12" parent="1" vertex="1">
          <mxGeometry x="2092" y="1241" width="246" height="140" as="geometry" />
        </mxCell>
        <mxCell id="d5ac148becb70bc-14" value="" style="edgeStyle=isometricEdgeStyle;endArrow=none;html=1;labelBackgroundColor=none;strokeWidth=5;fontFamily=Verdana;fontSize=12" parent="1" edge="1">
          <mxGeometry width="50" height="100" relative="1" as="geometry">
            <mxPoint x="462" y="1368" as="sourcePoint" />
            <mxPoint x="1602" y="1668" as="targetPoint" />
            <Array as="points">
              <mxPoint x="902" y="1558" />
            </Array>
          </mxGeometry>
        </mxCell>
        <mxCell id="d5ac148becb70bc-15" value="" style="verticalLabelPosition=bottom;html=1;verticalAlign=top;strokeWidth=1;dashed=0;shape=mxgraph.aws3d.arrowhead;aspect=fixed;rounded=1;shadow=0;comic=0;fillColor=none;fontFamily=Verdana;fontSize=12;fontColor=#000000;flipV=1;" parent="1" vertex="1">
          <mxGeometry x="443" y="1356" width="39" height="23" as="geometry" />
        </mxCell>
        <mxCell id="6AB3llM1MWr28MRjnmRu-6" value="" style="image;aspect=fixed;html=1;points=[];align=center;fontSize=12;image=img/lib/azure2/databases/Azure_Database_PostgreSQL_Server.svg;" vertex="1" parent="1">
          <mxGeometry x="368" y="1360" width="75" height="100" as="geometry" />
        </mxCell>
        <mxCell id="6AB3llM1MWr28MRjnmRu-7" value="" style="image;aspect=fixed;perimeter=ellipsePerimeter;html=1;align=center;shadow=0;dashed=0;spacingTop=3;image=img/lib/active_directory/generic_server.svg;" vertex="1" parent="1">
          <mxGeometry x="210" y="1220" width="151.2" height="270" as="geometry" />
        </mxCell>
        <mxCell id="6AB3llM1MWr28MRjnmRu-8" value="" style="image;aspect=fixed;perimeter=ellipsePerimeter;html=1;align=center;shadow=0;dashed=0;spacingTop=3;image=img/lib/active_directory/generic_server.svg;" vertex="1" parent="1">
          <mxGeometry x="920" y="790" width="151.2" height="270" as="geometry" />
        </mxCell>
        <mxCell id="6AB3llM1MWr28MRjnmRu-9" value="" style="image;aspect=fixed;html=1;points=[];align=center;fontSize=12;image=img/lib/azure2/databases/Azure_Database_PostgreSQL_Server.svg;" vertex="1" parent="1">
          <mxGeometry x="1050" y="1020" width="75" height="100" as="geometry" />
        </mxCell>
      </root>
    </mxGraphModel>
  </diagram>
</mxfile>
